<?xml version="1.0" standalone="no"?><!DOCTYPE svg PUBLIC "-//W3C//DTD SVG 1.1//EN" "http://www.w3.org/Graphics/SVG/1.1/DTD/svg11.dtd"><svg t="1739934534645" class="icon" viewBox="0 0 1024 1024" version="1.1" xmlns="http://www.w3.org/2000/svg" p-id="2003" xmlns:xlink="http://www.w3.org/1999/xlink" width="300" height="300"><path d="M512 512m-512 0a512 512 0 1 0 1024 0 512 512 0 1 0-1024 0Z" fill="#FEEEED" p-id="2004"></path><path d="M414.165333 225.834667L486.997333 298.666667h49.92l72.917334-72.832a42.666667 42.666667 0 0 1 56.32-3.541334l4.010666 3.541334a42.666667 42.666667 0 0 1 0 60.330666L657.664 298.666667H746.666667a42.666667 42.666667 0 0 1 42.666666 42.666666v85.333334a42.666667 42.666667 0 0 1-42.666666 42.666666v256a42.666667 42.666667 0 0 1-42.666667 42.666667h-384a42.666667 42.666667 0 0 1-42.666667-42.666667v-256a42.666667 42.666667 0 0 1-42.666666-42.666666V341.333333a42.666667 42.666667 0 0 1 42.666666-42.666666h88.96l-12.458666-12.501334a42.666667 42.666667 0 0 1 60.330666-60.330666zM533.333333 469.333333h-42.666666v170.666667h42.666666v-170.666667z" fill="#F5564D" p-id="2005"></path></svg>