<?xml version="1.0" standalone="no"?><!DOCTYPE svg PUBLIC "-//W3C//DTD SVG 1.1//EN" "http://www.w3.org/Graphics/SVG/1.1/DTD/svg11.dtd"><svg t="1739934511104" class="icon" viewBox="0 0 1024 1024" version="1.1" xmlns="http://www.w3.org/2000/svg" p-id="1164" xmlns:xlink="http://www.w3.org/1999/xlink" width="300" height="300"><path d="M512 512m-512 0a512 512 0 1 0 1024 0 512 512 0 1 0-1024 0Z" fill="#E5F5FE" p-id="1165"></path><path d="M576 256c128 0 234.666667 106.666667 234.666667 238.933333 0 187.733333-192 273.066667-341.333334 337.066667V725.333333c-149.333333 0-256-98.133333-256-230.4C213.333333 362.666667 320.298667 256 452.266667 256z m-128 213.333333h-42.666667a106.666667 106.666667 0 1 0 213.333334 0h-42.666667a64 64 0 0 1-128 0z" fill="#00A0FE" p-id="1166"></path></svg>