<?xml version="1.0" standalone="no"?><!DOCTYPE svg PUBLIC "-//W3C//DTD SVG 1.1//EN" "http://www.w3.org/Graphics/SVG/1.1/DTD/svg11.dtd"><svg t="1739934552219" class="icon" viewBox="0 0 1024 1024" version="1.1" xmlns="http://www.w3.org/2000/svg" p-id="2671" xmlns:xlink="http://www.w3.org/1999/xlink" width="300" height="300"><path d="M512 512m-512 0a512 512 0 1 0 1024 0 512 512 0 1 0-1024 0Z" fill="#E5F5FE" p-id="2672"></path><path d="M512 213.333333a128 128 0 0 1 128 128h59.648a42.666667 42.666667 0 0 1 42.581333 39.808l22.741334 341.333334A42.666667 42.666667 0 0 1 722.346667 768H301.653333a42.666667 42.666667 0 0 1-42.581333-45.525333l22.741333-341.333334A42.666667 42.666667 0 0 1 324.352 341.333333H384a128 128 0 0 1 128-128z m-64 298.666667h-42.666667a106.666667 106.666667 0 1 0 213.333334 0h-42.666667a64 64 0 0 1-128 0zM512 298.666667a42.666667 42.666667 0 0 0-42.666667 42.666666h85.333334a42.666667 42.666667 0 0 0-42.666667-42.666666z" fill="#3A77FF" p-id="2673"></path></svg>